<svg width="20" height="20" viewBox="0 0 20 20" fill="none" xmlns="http://www.w3.org/2000/svg">
<path fill-rule="evenodd" clip-rule="evenodd" d="M9.95038 0H10.0497L10.0513 8.20715e-06C12.699 0.0135864 15.2333 1.07665 17.0983 2.95608C18.9633 4.8355 20.0069 7.37785 20.0001 10.0256C19.9933 12.6733 18.9367 15.2103 17.0621 17.0801C15.1875 18.9499 12.6478 20 10.0001 20C7.35232 20 4.81265 18.9499 2.93802 17.0801C1.06339 15.2103 0.00682202 12.6733 3.29201e-05 10.0256C-0.00675618 7.37785 1.03679 4.8355 2.90181 2.95608C4.76683 1.07665 7.30108 0.0135864 9.94878 8.20715e-06L9.95038 0ZM9.95362 1.25001C7.63745 1.2623 5.42061 2.19244 3.78909 3.83656C2.1572 5.48105 1.2441 7.70561 1.25004 10.0224C1.25598 12.3391 2.18047 14.559 3.82078 16.1951C5.46108 17.8312 7.68329 18.75 10.0001 18.75C12.3168 18.75 14.539 17.8312 16.1793 16.1951C17.8197 14.559 18.7441 12.3391 18.7501 10.0224C18.756 7.70561 17.8429 5.48105 16.211 3.83656C14.5795 2.19244 12.3627 1.2623 10.0465 1.25001H9.95362Z" fill="#888888"/>
<path fill-rule="evenodd" clip-rule="evenodd" d="M5.74027 4.80396C6.50328 3.16086 7.61564 1.70404 8.99972 0.535156L9.55808 1.19631C8.27019 2.28397 7.23514 3.63954 6.52516 5.16845C6.46526 5.29743 6.4078 5.42738 6.35279 5.55823C7.38937 5.8869 8.47047 6.07551 9.56736 6.11485V0.625349H10.4328V6.11485C11.5296 6.07551 12.6107 5.8869 13.6473 5.55823C13.5923 5.42738 13.5349 5.29743 13.475 5.16845C12.765 3.63954 11.7299 2.28397 10.442 1.19631L11.0004 0.535156C12.3845 1.70404 13.4968 3.16086 14.2599 4.80396C14.3309 4.95701 14.3988 5.11133 14.4635 5.26682C15.3594 4.91014 16.2144 4.44537 17.0084 3.8789L17.511 4.58338C16.6554 5.19379 15.7338 5.694 14.7679 6.07707C15.1466 7.20259 15.3629 8.37802 15.4089 9.56771H19.3751V10.4331H15.4122C15.3754 11.6257 15.1674 12.8049 14.7961 13.935C15.7517 14.3166 16.6638 14.813 17.511 15.4174L17.0084 16.1219C16.2244 15.5626 15.381 15.1024 14.4975 14.7476C14.4227 14.931 14.3435 15.1129 14.2599 15.293C13.4968 16.9361 12.3845 18.3929 11.0004 19.5618L10.442 18.9007C11.7299 17.813 12.765 16.4574 13.475 14.9285C13.5478 14.7717 13.617 14.6134 13.6826 14.4538C12.6353 14.1182 11.5421 13.9258 10.4328 13.886V19.3755H9.56736V13.886C8.45802 13.9258 7.36482 14.1182 6.31749 14.4538C6.3831 14.6134 6.45233 14.7717 6.52516 14.9285C7.23514 16.4574 8.27019 17.813 9.55808 18.9007L8.99972 19.5618C7.61564 18.3929 6.50328 16.9361 5.74027 15.293C5.65663 15.1129 5.57742 14.931 5.50266 14.7476C4.61908 15.1024 3.77568 15.5626 2.99169 16.1219L2.4891 15.4174C3.33636 14.813 4.24838 14.3166 5.20401 13.935C4.83276 12.8049 4.62474 11.6257 4.58789 10.4331H0.625V9.56771H4.59123C4.6372 8.37802 4.8535 7.20259 5.23225 6.07707C4.26635 5.694 3.34471 5.19379 2.4891 4.58338L2.99169 3.8789C3.78572 4.44537 4.64071 4.91014 5.53665 5.26682C5.60132 5.11133 5.6692 4.95701 5.74027 4.80396ZM6.04708 6.36906C5.7015 7.40096 5.50258 8.47774 5.45732 9.56771H9.56736V6.98076C8.36558 6.94054 7.1812 6.73314 6.04708 6.36906ZM10.4328 6.98076V9.56771H14.5428C14.4975 8.47774 14.2986 7.40096 13.953 6.36906C12.8189 6.73314 11.6345 6.94054 10.4328 6.98076ZM14.5464 10.4331H10.4328V13.0201C11.6447 13.0606 12.8389 13.2712 13.9818 13.641C14.3196 12.6052 14.5101 11.5253 14.5464 10.4331ZM9.56736 13.0201V10.4331H5.45373C5.49 11.5253 5.68055 12.6052 6.01836 13.641C7.1612 13.2712 8.35543 13.0606 9.56736 13.0201Z" fill="#888888"/>
</svg>
